<mxfile host="Electron" agent="Mozilla/5.0 (Windows NT 10.0; Win64; x64) AppleWebKit/537.36 (KHTML, like Gecko) draw.io/24.7.8 Chrome/128.0.6613.36 Electron/32.0.1 Safari/537.36" version="24.7.8">
  <diagram name="Page-1" id="sNdYrbWgLJKYeUoCpht7">
    <mxGraphModel dx="2062" dy="731" grid="0" gridSize="10" guides="1" tooltips="1" connect="1" arrows="1" fold="1" page="1" pageScale="1" pageWidth="827" pageHeight="1169" math="0" shadow="0">
      <root>
        <mxCell id="0" />
        <mxCell id="1" parent="0" />
        <mxCell id="mKMaE9A_YGJ78vrPqiGL-34" value="" style="rounded=0;whiteSpace=wrap;html=1;" vertex="1" parent="1">
          <mxGeometry x="69" y="65" width="578" height="286" as="geometry" />
        </mxCell>
        <mxCell id="mKMaE9A_YGJ78vrPqiGL-1" value="nginx+backend" style="rounded=1;whiteSpace=wrap;html=1;" vertex="1" parent="1">
          <mxGeometry x="444" y="120" width="183" height="60" as="geometry" />
        </mxCell>
        <mxCell id="mKMaE9A_YGJ78vrPqiGL-2" value="nginx+frondend" style="rounded=1;whiteSpace=wrap;html=1;" vertex="1" parent="1">
          <mxGeometry x="159" y="120" width="168" height="60" as="geometry" />
        </mxCell>
        <mxCell id="mKMaE9A_YGJ78vrPqiGL-5" value="MongoDB" style="shape=cylinder3;whiteSpace=wrap;html=1;boundedLbl=1;backgroundOutline=1;size=15;" vertex="1" parent="1">
          <mxGeometry x="699" y="145.5" width="78" height="111" as="geometry" />
        </mxCell>
        <mxCell id="mKMaE9A_YGJ78vrPqiGL-12" value="3001" style="text;html=1;align=center;verticalAlign=middle;resizable=0;points=[];autosize=1;strokeColor=default;fillColor=none;" vertex="1" parent="1">
          <mxGeometry x="444" y="121" width="45" height="26" as="geometry" />
        </mxCell>
        <mxCell id="mKMaE9A_YGJ78vrPqiGL-15" value="port 3000" style="text;html=1;align=center;verticalAlign=middle;resizable=0;points=[];autosize=1;strokeColor=default;fillColor=none;" vertex="1" parent="1">
          <mxGeometry x="159" y="121" width="69" height="26" as="geometry" />
        </mxCell>
        <mxCell id="mKMaE9A_YGJ78vrPqiGL-41" style="edgeStyle=orthogonalEdgeStyle;rounded=0;orthogonalLoop=1;jettySize=auto;html=1;entryX=0;entryY=1;entryDx=0;entryDy=0;" edge="1" parent="1" source="mKMaE9A_YGJ78vrPqiGL-17" target="mKMaE9A_YGJ78vrPqiGL-31">
          <mxGeometry relative="1" as="geometry" />
        </mxCell>
        <mxCell id="mKMaE9A_YGJ78vrPqiGL-17" value="nginx+frondend" style="rounded=1;whiteSpace=wrap;html=1;" vertex="1" parent="1">
          <mxGeometry x="162" y="212" width="165" height="60" as="geometry" />
        </mxCell>
        <mxCell id="mKMaE9A_YGJ78vrPqiGL-20" value="port 3000" style="text;html=1;align=center;verticalAlign=middle;resizable=0;points=[];autosize=1;strokeColor=default;fillColor=none;" vertex="1" parent="1">
          <mxGeometry x="164" y="212" width="69" height="26" as="geometry" />
        </mxCell>
        <mxCell id="mKMaE9A_YGJ78vrPqiGL-26" value="&lt;p style=&quot;margin-left:72.0pt;mso-add-space:auto;&lt;br/&gt;text-indent:-18.0pt;mso-list:l0 level2 lfo1&quot; class=&quot;MsoListParagraph&quot;&gt;&lt;span lang=&quot;EN-US&quot;&gt;Public IP: &lt;b&gt;54.212.227.53&lt;/b&gt;&lt;/span&gt;&lt;/p&gt;" style="text;html=1;align=center;verticalAlign=middle;resizable=0;points=[];autosize=1;strokeColor=none;fillColor=none;" vertex="1" parent="1">
          <mxGeometry x="371" y="147" width="245" height="50" as="geometry" />
        </mxCell>
        <mxCell id="mKMaE9A_YGJ78vrPqiGL-21" value="nginx+backend" style="rounded=1;whiteSpace=wrap;html=1;" vertex="1" parent="1">
          <mxGeometry x="447.75" y="206" width="175.5" height="60" as="geometry" />
        </mxCell>
        <mxCell id="mKMaE9A_YGJ78vrPqiGL-19" value="3001" style="text;html=1;align=center;verticalAlign=middle;resizable=0;points=[];autosize=1;strokeColor=default;fillColor=none;" vertex="1" parent="1">
          <mxGeometry x="448.5" y="212" width="45" height="26" as="geometry" />
        </mxCell>
        <mxCell id="mKMaE9A_YGJ78vrPqiGL-28" value="&lt;span style=&quot;font-size:11.0pt;line-height:&lt;br/&gt;107%;font-family:&amp;quot;Calibri&amp;quot;,sans-serif;mso-ascii-theme-font:minor-latin;&lt;br/&gt;mso-fareast-font-family:Calibri;mso-fareast-theme-font:minor-latin;mso-hansi-theme-font:&lt;br/&gt;minor-latin;mso-bidi-font-family:&amp;quot;Times New Roman&amp;quot;;mso-bidi-theme-font:minor-bidi;&lt;br/&gt;mso-ansi-language:EN-US;mso-fareast-language:EN-US;mso-bidi-language:AR-SA&quot; lang=&quot;EN-US&quot;&gt;Public IP: &lt;/span&gt;&lt;b&gt;&lt;span style=&quot;font-size: 10.5pt; line-height: 107%; font-family: Calibri, sans-serif;&quot;&gt;54.184.128.108&lt;/span&gt;&lt;/b&gt;&lt;span style=&quot;font-size: 10.5pt; line-height: 107%; font-family: Calibri, sans-serif;&quot;&gt;&lt;/span&gt;" style="text;html=1;align=center;verticalAlign=middle;resizable=0;points=[];autosize=1;strokeColor=none;fillColor=none;" vertex="1" parent="1">
          <mxGeometry x="164" y="157" width="165" height="30" as="geometry" />
        </mxCell>
        <mxCell id="mKMaE9A_YGJ78vrPqiGL-29" style="edgeStyle=orthogonalEdgeStyle;rounded=0;orthogonalLoop=1;jettySize=auto;html=1;entryX=0.018;entryY=0.39;entryDx=0;entryDy=0;entryPerimeter=0;" edge="1" parent="1" source="mKMaE9A_YGJ78vrPqiGL-1" target="mKMaE9A_YGJ78vrPqiGL-5">
          <mxGeometry relative="1" as="geometry" />
        </mxCell>
        <mxCell id="mKMaE9A_YGJ78vrPqiGL-30" style="edgeStyle=orthogonalEdgeStyle;rounded=0;orthogonalLoop=1;jettySize=auto;html=1;entryX=0;entryY=0;entryDx=0;entryDy=75.75;entryPerimeter=0;" edge="1" parent="1" source="mKMaE9A_YGJ78vrPqiGL-21" target="mKMaE9A_YGJ78vrPqiGL-5">
          <mxGeometry relative="1" as="geometry" />
        </mxCell>
        <mxCell id="mKMaE9A_YGJ78vrPqiGL-51" style="edgeStyle=orthogonalEdgeStyle;rounded=0;orthogonalLoop=1;jettySize=auto;html=1;entryX=0.5;entryY=0;entryDx=0;entryDy=0;" edge="1" parent="1" source="mKMaE9A_YGJ78vrPqiGL-31" target="mKMaE9A_YGJ78vrPqiGL-1">
          <mxGeometry relative="1" as="geometry">
            <Array as="points">
              <mxPoint x="387" y="100" />
              <mxPoint x="536" y="100" />
            </Array>
          </mxGeometry>
        </mxCell>
        <mxCell id="mKMaE9A_YGJ78vrPqiGL-31" value="backend lb" style="ellipse;whiteSpace=wrap;html=1;" vertex="1" parent="1">
          <mxGeometry x="359" y="164.5" width="64" height="59" as="geometry" />
        </mxCell>
        <mxCell id="mKMaE9A_YGJ78vrPqiGL-38" style="edgeStyle=orthogonalEdgeStyle;rounded=0;orthogonalLoop=1;jettySize=auto;html=1;entryX=0;entryY=0.5;entryDx=0;entryDy=0;" edge="1" parent="1" source="mKMaE9A_YGJ78vrPqiGL-32" target="mKMaE9A_YGJ78vrPqiGL-2">
          <mxGeometry relative="1" as="geometry">
            <Array as="points">
              <mxPoint x="136" y="180" />
              <mxPoint x="136" y="150" />
            </Array>
          </mxGeometry>
        </mxCell>
        <mxCell id="mKMaE9A_YGJ78vrPqiGL-39" style="edgeStyle=orthogonalEdgeStyle;rounded=0;orthogonalLoop=1;jettySize=auto;html=1;entryX=0;entryY=0.5;entryDx=0;entryDy=0;" edge="1" parent="1" source="mKMaE9A_YGJ78vrPqiGL-32" target="mKMaE9A_YGJ78vrPqiGL-17">
          <mxGeometry relative="1" as="geometry">
            <Array as="points">
              <mxPoint x="138" y="221" />
              <mxPoint x="138" y="242" />
            </Array>
          </mxGeometry>
        </mxCell>
        <mxCell id="mKMaE9A_YGJ78vrPqiGL-32" value="frontend Lb" style="ellipse;whiteSpace=wrap;html=1;" vertex="1" parent="1">
          <mxGeometry x="33" y="164.5" width="78" height="73" as="geometry" />
        </mxCell>
        <mxCell id="mKMaE9A_YGJ78vrPqiGL-36" value="&lt;span style=&quot;color: rgb(22, 25, 31); font-family: &amp;quot;Amazon Ember&amp;quot;, &amp;quot;Helvetica Neue&amp;quot;, Roboto, Arial, sans-serif; font-size: 14px; text-align: start; text-wrap: wrap; background-color: rgb(242, 243, 243);&quot;&gt;34.219.20.172&lt;/span&gt;" style="text;html=1;align=center;verticalAlign=middle;resizable=0;points=[];autosize=1;strokeColor=none;fillColor=none;" vertex="1" parent="1">
          <mxGeometry x="196" y="248" width="108" height="29" as="geometry" />
        </mxCell>
        <mxCell id="mKMaE9A_YGJ78vrPqiGL-37" value="&lt;span style=&quot;color: rgb(22, 25, 31); font-family: &amp;quot;Amazon Ember&amp;quot;, &amp;quot;Helvetica Neue&amp;quot;, Roboto, Arial, sans-serif; font-size: 14px; text-align: start; text-wrap: wrap; background-color: rgb(242, 243, 243);&quot;&gt;54.212.246.233&lt;/span&gt;&lt;span style=&quot;color: rgb(22, 25, 31); font-family: &amp;quot;Amazon Ember&amp;quot;, &amp;quot;Helvetica Neue&amp;quot;, Roboto, Arial, sans-serif; font-size: 14px; text-align: start; text-wrap: wrap; background-color: rgb(242, 243, 243);&quot;&gt;&amp;nbsp;&lt;/span&gt;" style="text;html=1;align=center;verticalAlign=middle;resizable=0;points=[];autosize=1;strokeColor=none;fillColor=none;" vertex="1" parent="1">
          <mxGeometry x="476.75" y="243" width="119" height="29" as="geometry" />
        </mxCell>
        <mxCell id="mKMaE9A_YGJ78vrPqiGL-40" style="edgeStyle=orthogonalEdgeStyle;rounded=0;orthogonalLoop=1;jettySize=auto;html=1;entryX=0.053;entryY=0.312;entryDx=0;entryDy=0;entryPerimeter=0;" edge="1" parent="1" source="mKMaE9A_YGJ78vrPqiGL-2" target="mKMaE9A_YGJ78vrPqiGL-31">
          <mxGeometry relative="1" as="geometry" />
        </mxCell>
        <mxCell id="mKMaE9A_YGJ78vrPqiGL-53" style="edgeStyle=orthogonalEdgeStyle;rounded=0;orthogonalLoop=1;jettySize=auto;html=1;entryX=0.551;entryY=0.993;entryDx=0;entryDy=0;entryPerimeter=0;" edge="1" parent="1" source="mKMaE9A_YGJ78vrPqiGL-31" target="mKMaE9A_YGJ78vrPqiGL-21">
          <mxGeometry relative="1" as="geometry">
            <Array as="points">
              <mxPoint x="388" y="286" />
              <mxPoint x="545" y="286" />
            </Array>
          </mxGeometry>
        </mxCell>
        <mxCell id="mKMaE9A_YGJ78vrPqiGL-56" style="edgeStyle=orthogonalEdgeStyle;rounded=0;orthogonalLoop=1;jettySize=auto;html=1;entryX=0;entryY=0.5;entryDx=0;entryDy=0;" edge="1" parent="1" source="mKMaE9A_YGJ78vrPqiGL-55" target="mKMaE9A_YGJ78vrPqiGL-32">
          <mxGeometry relative="1" as="geometry" />
        </mxCell>
        <mxCell id="mKMaE9A_YGJ78vrPqiGL-55" value="CloudFlair" style="ellipse;whiteSpace=wrap;html=1;" vertex="1" parent="1">
          <mxGeometry x="-110" y="171" width="87" height="60" as="geometry" />
        </mxCell>
        <mxCell id="mKMaE9A_YGJ78vrPqiGL-60" style="edgeStyle=orthogonalEdgeStyle;rounded=0;orthogonalLoop=1;jettySize=auto;html=1;entryX=0;entryY=0.5;entryDx=0;entryDy=0;" edge="1" parent="1" source="mKMaE9A_YGJ78vrPqiGL-57" target="mKMaE9A_YGJ78vrPqiGL-55">
          <mxGeometry relative="1" as="geometry" />
        </mxCell>
        <mxCell id="mKMaE9A_YGJ78vrPqiGL-57" value="Actor" style="shape=umlActor;verticalLabelPosition=bottom;verticalAlign=top;html=1;outlineConnect=0;" vertex="1" parent="1">
          <mxGeometry x="-205" y="171" width="30" height="60" as="geometry" />
        </mxCell>
        <mxCell id="mKMaE9A_YGJ78vrPqiGL-61" value="Same Subnet" style="text;html=1;align=center;verticalAlign=middle;resizable=0;points=[];autosize=1;strokeColor=default;fillColor=none;" vertex="1" parent="1">
          <mxGeometry x="68" y="39" width="91" height="26" as="geometry" />
        </mxCell>
      </root>
    </mxGraphModel>
  </diagram>
</mxfile>
